<svg width="375" height="812" viewBox="0 0 375 812" fill="none" xmlns="http://www.w3.org/2000/svg">
<g opacity="0.2">
<path d="M-931 787.952H201.072" stroke="#475363" stroke-miterlimit="10"/>
<path d="M-931 761.611H201.072" stroke="#475363" stroke-miterlimit="10"/>
<path d="M-931 735.27H201.072" stroke="#475363" stroke-miterlimit="10"/>
<path d="M-931 708.928H201.072" stroke="#475363" stroke-miterlimit="10"/>
<path d="M-931 682.585H201.072" stroke="#475363" stroke-miterlimit="10"/>
<path d="M-931 656.243H201.072" stroke="#475363" stroke-miterlimit="10"/>
<path d="M-931 629.902H201.072" stroke="#475363" stroke-miterlimit="10"/>
<path d="M-931 603.56H201.072" stroke="#475363" stroke-miterlimit="10"/>
<path d="M-931 577.222H201.072" stroke="#475363" stroke-miterlimit="10"/>
<path d="M-931 550.88H201.072" stroke="#475363" stroke-miterlimit="10"/>
<path d="M-931 524.538H201.072" stroke="#475363" stroke-miterlimit="10"/>
<path d="M-931 498.196H201.072" stroke="#475363" stroke-miterlimit="10"/>
<path d="M-931 471.854H201.072" stroke="#475363" stroke-miterlimit="10"/>
<path d="M-931 445.513H201.072" stroke="#475363" stroke-miterlimit="10"/>
<path d="M-931 419.171H201.072" stroke="#475363" stroke-miterlimit="10"/>
<path d="M-931 392.829H201.072" stroke="#475363" stroke-miterlimit="10"/>
<path d="M-931 366.487H201.072" stroke="#475363" stroke-miterlimit="10"/>
<path d="M-931 340.146H201.072" stroke="#475363" stroke-miterlimit="10"/>
<path d="M-931 313.804H201.072" stroke="#475363" stroke-miterlimit="10"/>
<path d="M-931 287.466H201.072" stroke="#475363" stroke-miterlimit="10"/>
<path d="M-931 261.124H201.072" stroke="#475363" stroke-miterlimit="10"/>
<path d="M-931 234.781H201.072" stroke="#475363" stroke-miterlimit="10"/>
<path d="M-931 208.44H201.072" stroke="#475363" stroke-miterlimit="10"/>
<path d="M-931 182.098H201.072" stroke="#475363" stroke-miterlimit="10"/>
<path d="M-931 155.757H201.072" stroke="#475363" stroke-miterlimit="10"/>
<path d="M-931 129.414H201.072" stroke="#475363" stroke-miterlimit="10"/>
<path d="M-931 103.073H201.072" stroke="#475363" stroke-miterlimit="10"/>
<path d="M-931 76.7305H201.072" stroke="#475363" stroke-miterlimit="10"/>
<path d="M-931 50.3887H201.072" stroke="#475363" stroke-miterlimit="10"/>
<path d="M-931 24.0479H201.072" stroke="#475363" stroke-miterlimit="10"/>
<path d="M173.464 -134V946" stroke="#475363" stroke-miterlimit="10"/>
<path d="M145.852 -134V946" stroke="#475363" stroke-miterlimit="10"/>
<path d="M118.24 -134V946" stroke="#475363" stroke-miterlimit="10"/>
<path d="M90.6283 -134V946" stroke="#475363" stroke-miterlimit="10"/>
<path d="M63.0162 -134V946" stroke="#475363" stroke-miterlimit="10"/>
<path d="M35.4043 -134V946" stroke="#475363" stroke-miterlimit="10"/>
<path d="M7.79266 -134V946" stroke="#475363" stroke-miterlimit="10"/>
<path d="M173 787.952H1305.07" stroke="#475363" stroke-miterlimit="10"/>
<path d="M173 761.611H1305.07" stroke="#475363" stroke-miterlimit="10"/>
<path d="M173 735.27H1305.07" stroke="#475363" stroke-miterlimit="10"/>
<path d="M173 708.928H1305.07" stroke="#475363" stroke-miterlimit="10"/>
<path d="M173 682.585H1305.07" stroke="#475363" stroke-miterlimit="10"/>
<path d="M173 656.243H1305.07" stroke="#475363" stroke-miterlimit="10"/>
<path d="M173 629.902H1305.07" stroke="#475363" stroke-miterlimit="10"/>
<path d="M173 603.56H1305.07" stroke="#475363" stroke-miterlimit="10"/>
<path d="M173 577.222H1305.07" stroke="#475363" stroke-miterlimit="10"/>
<path d="M173 550.88H1305.07" stroke="#475363" stroke-miterlimit="10"/>
<path d="M173 524.538H1305.07" stroke="#475363" stroke-miterlimit="10"/>
<path d="M173 498.196H1305.07" stroke="#475363" stroke-miterlimit="10"/>
<path d="M173 471.854H1305.07" stroke="#475363" stroke-miterlimit="10"/>
<path d="M173 445.513H1305.07" stroke="#475363" stroke-miterlimit="10"/>
<path d="M173 419.171H1305.07" stroke="#475363" stroke-miterlimit="10"/>
<path d="M173 392.829H1305.07" stroke="#475363" stroke-miterlimit="10"/>
<path d="M173 366.487H1305.07" stroke="#475363" stroke-miterlimit="10"/>
<path d="M173 340.146H1305.07" stroke="#475363" stroke-miterlimit="10"/>
<path d="M173 313.804H1305.07" stroke="#475363" stroke-miterlimit="10"/>
<path d="M173 287.466H1305.07" stroke="#475363" stroke-miterlimit="10"/>
<path d="M173 261.124H1305.07" stroke="#475363" stroke-miterlimit="10"/>
<path d="M173 234.781H1305.07" stroke="#475363" stroke-miterlimit="10"/>
<path d="M173 208.44H1305.07" stroke="#475363" stroke-miterlimit="10"/>
<path d="M173 182.098H1305.07" stroke="#475363" stroke-miterlimit="10"/>
<path d="M173 155.757H1305.07" stroke="#475363" stroke-miterlimit="10"/>
<path d="M173 129.414H1305.07" stroke="#475363" stroke-miterlimit="10"/>
<path d="M173 103.073H1305.07" stroke="#475363" stroke-miterlimit="10"/>
<path d="M173 76.7305H1305.07" stroke="#475363" stroke-miterlimit="10"/>
<path d="M173 50.3887H1305.07" stroke="#475363" stroke-miterlimit="10"/>
<path d="M173 24.0479H1305.07" stroke="#475363" stroke-miterlimit="10"/>
<path d="M366.279 -134V946" stroke="#475363" stroke-miterlimit="10"/>
<path d="M338.667 -134V946" stroke="#475363" stroke-miterlimit="10"/>
<path d="M311.06 -134V946" stroke="#475363" stroke-miterlimit="10"/>
<path d="M283.447 -134V946" stroke="#475363" stroke-miterlimit="10"/>
<path d="M255.836 -134V946" stroke="#475363" stroke-miterlimit="10"/>
<path d="M228.224 -134V946" stroke="#475363" stroke-miterlimit="10"/>
<path d="M200.612 -134V946" stroke="#475363" stroke-miterlimit="10"/>
</g>
</svg>
