<svg width="60" height="60" viewBox="0 0 60 60" fill="none" xmlns="http://www.w3.org/2000/svg">
<g clip-path="url(#clip0_296_19160)">
<path d="M0 30C0 13.4233 13.4233 0 30 0C46.5767 0 60 13.4233 60 30C60 46.5488 46.5488 60 30 60C13.4233 60 0 46.5767 0 30Z" fill="#529739"/>
<path d="M40.3814 20.5958L26.0372 34.9399L19.6186 28.5213C18.8093 27.7678 17.5814 27.7678 16.7721 28.5213C15.9349 29.3027 15.8791 30.6423 16.6605 31.4795L24.5581 39.3771C24.9488 39.7678 25.4791 39.9911 26.0372 39.9911C26.5953 39.9911 27.1256 39.7678 27.5163 39.3771L43.3395 23.5539C44.093 22.7446 44.093 21.5167 43.3395 20.7074C42.5581 19.8702 41.2186 19.8144 40.3814 20.5958Z" fill="white"/>
</g>
<defs>
<clipPath id="clip0_296_19160">
<rect width="60" height="60" fill="white"/>
</clipPath>
</defs>
</svg>
