<svg width="36" height="25" viewBox="0 0 36 25" fill="none" xmlns="http://www.w3.org/2000/svg">
<path d="M34.3903 5.54698C34.3903 5.40216 34.3843 4.07466 34.3963 4.07466H35.2945C35.5286 4.07466 35.478 4.05461 35.478 3.82568V1.7962C35.478 1.55598 35.4862 1.59151 35.237 1.59151H34.3902C34.3908 1.42581 34.3916 1.2601 34.3922 1.0943H34.0789C34.0374 1.0943 33.7974 0.789564 33.7284 0.743592C33.4239 0.540401 33.1826 0.517461 32.8367 0.517461C32.5589 0.517461 32.5819 0.503474 32.4928 0.767184C32.4535 0.883746 32.4141 1.00031 32.3748 1.11678C32.3424 1.21254 32.199 1.10671 32.1322 1.15193C31.976 1.25758 32.1276 1.59142 31.8918 1.59142H15.8903C15.75 1.59142 15.9553 1.34142 15.7798 1.34142H7.74957C7.60755 1.34142 7.40231 0.66349 7.33955 0.523989C7.31717 0.474193 6.80066 0.517368 6.73184 0.517368C6.51904 0.517368 6.52063 0.719906 6.44379 0.908271C6.41694 0.974105 6.30681 1.36613 6.23426 1.36613H5.4628C5.30997 1.36613 5.13811 1.31456 5.03712 1.43634C4.84418 1.66891 4.82022 1.75554 4.52313 1.73418C4.20263 1.71115 3.97137 1.90222 3.63054 1.87033C3.42007 1.85065 3.21698 1.78818 3.01602 1.72579C2.82355 1.66602 2.65104 1.62275 2.48329 1.76384C2.35516 1.87163 2.24597 2.04331 2.23655 2.21414C2.22638 2.39934 2.30145 2.5573 2.36094 2.72879C2.4776 3.06542 2.59416 3.40214 2.71091 3.73878C2.83381 4.09312 2.92025 4.30909 2.82216 4.68759C2.73273 5.0329 2.53774 5.31908 2.40729 5.6448C2.28895 5.94031 2.17379 6.2264 1.97862 6.48582C1.66819 6.89845 1.2066 7.12561 0.70492 7.21839C0.516835 7.25317 0.234102 7.20618 0.126491 7.36974C0.0157105 7.53805 -0.0579568 7.75271 0.0603772 7.93725C0.341059 8.37506 1.21369 8.21682 1.6901 8.29888C2.5729 8.45087 3.27759 9.37377 3.4695 10.1932C3.63595 10.9039 3.49197 11.6574 3.06535 12.2505C2.93918 12.426 2.8796 12.5017 2.80901 12.7056C2.47116 13.6817 2.13341 14.6579 1.79557 15.634C1.58473 16.2431 1.37399 16.8522 1.16315 17.4614C0.884892 18.2654 0.544903 19.028 0.389083 19.8732C0.262916 20.5574 0.217037 21.2468 0.294994 21.9395C0.314669 22.1143 0.449788 23.2255 0.692424 23.2255H2.46072C2.35264 23.6503 2.24466 24.0752 2.13658 24.5C3.77135 24.5 5.40611 24.5 7.04078 24.5C7.76384 24.5 8.48699 24.5 9.21005 24.5C9.57876 24.5 9.90737 24.4437 9.90737 24.0259V23.2764C9.90737 23.0336 9.97199 22.981 9.71779 22.981C9.78419 22.7869 9.82988 22.6914 9.78857 22.4958C9.71938 22.168 9.66725 21.8776 9.65681 21.5417C9.6458 21.1903 9.65606 20.8383 9.68721 20.4881C9.76544 19.6088 10.0047 18.7529 10.2656 17.9127C10.4202 17.4149 10.5599 16.9125 10.6977 16.4097C10.7967 16.0483 10.9007 15.6882 11.0018 15.3274C11.0809 15.0454 11.1468 14.7602 11.2379 14.4816C11.3132 14.2511 11.3823 14.0374 11.5649 13.8645C11.7965 13.6452 12.0643 13.6112 12.3645 13.5686C13.2106 13.4485 14.0543 13.929 14.8787 14.0651C15.7765 14.2132 16.6891 14.2566 17.5895 14.1103C18.549 13.9555 19.5293 13.607 20.2211 12.8964C20.8531 12.2471 21.1016 11.3072 21.2313 10.4357C21.4064 9.25982 22.8586 8.31911 23.9671 8.32135C24.5303 8.32256 25.0796 8.46934 25.6381 8.46934H30.5681C30.7948 8.46934 31.0766 8.50766 31.2893 8.41012C31.581 8.2764 31.5661 7.99302 31.5661 7.72343C31.5661 7.55232 31.6598 7.61237 31.8198 7.61237H33.98C34.2976 7.61237 34.291 7.35789 34.291 7.11386C34.291 6.97865 34.3444 6.97715 34.4003 6.85723C34.4656 6.7168 34.4824 6.55221 34.4772 6.39901C34.4725 6.26174 34.4519 6.10191 34.3681 5.98777C34.2806 5.86869 34.291 5.83111 34.291 5.66485C34.291 5.57113 34.2732 5.52022 34.3898 5.54661L34.3903 5.54698ZM13.4868 13.0966C13.5248 13.1125 13.5629 13.1286 13.601 13.1445C12.8866 12.8449 12.3755 12.1487 12.195 11.4017C11.9796 10.5102 12.2592 9.70723 12.9836 9.14474C13.1897 8.98473 13.4081 8.80886 13.6582 8.7116C13.8898 8.62161 14.2589 8.57583 14.4805 8.7129C14.7208 8.86145 14.8218 9.08954 14.8619 9.35819C14.8711 9.73539 15.028 10.1593 15.1814 10.5C15.4474 11.091 15.9038 11.6056 16.4597 11.9401C16.8541 12.1774 17.2797 12.3237 17.7229 12.4401C17.9096 12.4891 18.098 12.5313 18.2852 12.5778C18.3998 12.6064 18.4588 12.5151 18.4063 12.4155C18.3581 12.3325 18.132 12.2618 18.0438 12.2301C17.8133 12.1472 17.5905 12.0645 17.3736 11.9499C17.1545 11.8342 16.939 11.6963 16.7693 11.5324C16.4028 11.1781 16.1041 10.743 16.019 10.2421C15.9564 9.87424 15.9173 9.44855 16.047 9.08814C16.1804 8.71775 16.5531 8.63476 16.9065 8.62395C17.5326 8.60474 18.2916 8.53209 18.873 8.80839C19.2564 8.9907 19.6092 9.23137 19.9052 9.53677C20.495 10.145 20.516 11.1855 20.2148 11.9479C19.9605 12.5916 19.3412 13.0023 18.724 13.2588C17.8928 13.6044 16.9585 13.7016 16.0654 13.6899C15.1658 13.6783 14.3177 13.4202 13.4868 13.0966Z" fill="white"/>
</svg>
