
<svg width="24" height="24" viewBox="0 0 24 24" fill="none" xmlns="http://www.w3.org/2000/svg">
<rect width="24" height="24" rx="12" fill="#7E90AE"/>
<g clip-path="url(#clip0_620_16449)">
<path d="M16.6667 13.76C15.4655 14.9492 13.7117 15.3816 12.1021 14.8771L10.8288 16.1384C10.7087 16.2465 10.5285 16.2465 10.4084 16.1384L9.24325 14.9732C9.06307 14.805 8.78679 14.805 8.60661 14.9732C8.42643 15.1534 8.42643 15.4297 8.60661 15.6099L9.77177 16.775C9.89189 16.8831 9.89189 17.0753 9.77177 17.1834L9.27928 17.6759C9.03904 17.9041 8.71472 18.0123 8.39039 17.9882L7.08108 17.808C6.62463 17.724 6.26427 17.3636 6.18018 16.9071L6 15.6099C5.97598 15.2855 6.07207 14.9612 6.28829 14.721L9.11111 11.8981C8.36637 9.49574 9.71171 6.94919 12.1021 6.20445C14.5045 5.4597 17.0511 6.79303 17.7958 9.19544C18.3003 10.805 17.8679 12.5588 16.6667 13.76Z" fill="white"/>
<path d="M14.997 10.4927C14.997 11.3215 14.3243 11.9942 13.4955 11.9942C12.6667 11.9942 11.994 11.3215 11.994 10.4927C11.994 9.66388 12.6667 8.99121 13.4955 8.99121C14.3243 8.99121 14.997 9.66388 14.997 10.4927Z" fill="#7E90AE"/>
</g>
<defs>
<clipPath id="clip0_620_16449">
<rect width="12" height="12" fill="white" transform="translate(6 6)"/>
</clipPath>
</defs>
</svg>
