<svg width="25" height="24" viewBox="0 0 25 24" fill="none" xmlns="http://www.w3.org/2000/svg">
<g clip-path="url(#clip0_296_19166)">
<path d="M14.2406 1.72465L16.3682 5.97985C16.739 6.62458 17.3515 7.07589 18.0768 7.23707L21.929 7.8818C24.3951 8.30087 24.9754 10.0739 23.2024 11.8469L20.2044 14.861C19.6725 15.4574 19.4468 16.2633 19.5758 17.0531L20.43 20.7764C21.107 23.7099 19.5435 24.8543 16.9485 23.323L13.338 21.1793C12.5966 20.7925 11.694 20.7925 10.9525 21.1793L7.32593 23.3069C4.7309 24.8381 3.16744 23.6938 3.8444 20.7602L4.69867 17.0369C4.82761 16.2471 4.60196 15.4412 4.07006 14.8449L1.08819 11.863C-0.684814 10.09 -0.104559 8.30087 2.36153 7.89792L6.21378 7.25319C6.93909 7.09201 7.55159 6.6407 7.92231 5.99597L10.0499 1.74077C11.1943 -0.580255 13.0962 -0.580255 14.2406 1.74077V1.72465Z" fill="#FC9E30"/>
</g>
<defs>
<clipPath id="clip0_296_19166">
<rect width="24.1773" height="24" fill="white" transform="translate(0.0566406)"/>
</clipPath>
</defs>
</svg>
